<?xml version="1.0" encoding="utf-8"?>
<svg width="32" height="33.333" viewBox="0 0 32 33.333" fill="none" xmlns="http://www.w3.org/2000/svg">
  <path d="M17.4379 1.2823L30.2803 22.6363Q30.3109 22.6873 30.3346 22.7419Q30.3583 22.7964 30.3746 22.8536Q30.3909 22.9108 30.3995 22.9697Q30.4081 23.0286 30.4089 23.088Q30.4097 23.1475 30.4027 23.2066Q30.3956 23.2657 30.3809 23.3233Q30.3661 23.3809 30.3439 23.4361Q30.3217 23.4913 30.2924 23.5431Q30.2631 23.5949 30.2273 23.6423Q30.1915 23.6898 30.1497 23.7321Q30.1079 23.7745 30.0609 23.811Q30.0139 23.8474 29.9625 23.8774Q29.9111 23.9074 29.8563 23.9303Q29.8014 23.9533 29.744 23.9688Q29.6865 23.9843 29.6276 23.9922Q29.5686 24 29.5091 24L3.82423 24Q3.76474 24 3.70577 23.9922Q3.6468 23.9843 3.58938 23.9688Q3.53195 23.9533 3.47707 23.9303Q3.42218 23.9074 3.3708 23.8774Q3.31942 23.8474 3.27243 23.811Q3.22543 23.7745 3.18365 23.7321Q3.14187 23.6898 3.10603 23.6423Q3.07018 23.5949 3.0409 23.5431Q3.01162 23.4913 2.98941 23.4361Q2.9672 23.3809 2.95244 23.3233Q2.93769 23.2657 2.93065 23.2066Q2.92361 23.1475 2.9244 23.088Q2.9252 23.0286 2.93382 22.9697Q2.94244 22.9108 2.95873 22.8536Q2.97502 22.7964 2.99871 22.7418Q3.02239 22.6873 3.05305 22.6363L15.8955 1.2823Q15.9254 1.23261 15.9614 1.18718Q15.9974 1.14174 16.0389 1.1013Q16.0805 1.06086 16.1268 1.02608Q16.1732 0.991302 16.2237 0.962765Q16.2742 0.934227 16.3279 0.9124Q16.3816 0.890574 16.4376 0.875819Q16.4937 0.861064 16.5512 0.853625Q16.6087 0.846186 16.6667 0.846186Q16.7246 0.846186 16.7821 0.853625Q16.8396 0.861064 16.8957 0.875819Q16.9518 0.890574 17.0055 0.9124Q17.0592 0.934227 17.1096 0.962765Q17.1601 0.991302 17.2065 1.02608Q17.2529 1.06086 17.2944 1.1013Q17.336 1.14174 17.372 1.18718Q17.408 1.23261 17.4379 1.2823Z" fill="#23BDEE" fill-rule="evenodd" transform="matrix(-0 1 -1 -0 32 0)" />
</svg>